<?xml version="1.0" encoding="iso-8859-1"?>
<!-- Generator: Adobe Illustrator 19.0.0, SVG Export Plug-In . SVG Version: 6.00 Build 0)  -->
<svg version="1.1" id="Layer_1" xmlns="http://www.w3.org/2000/svg" xmlns:xlink="http://www.w3.org/1999/xlink" x="0px" y="0px"
	 viewBox="0 0 512 512" style="enable-background:new 0 0 512 512;" xml:space="preserve">
<path style="fill:#DCF3F9;" d="M489.739,289.391H22.261C9.966,289.391,0,279.425,0,267.13V155.826
	c0-12.295,9.966-22.261,22.261-22.261h467.478c12.295,0,22.261,9.966,22.261,22.261V267.13
	C512,279.425,502.034,289.391,489.739,289.391z"/>
<path style="fill:#C3E4ED;" d="M489.739,133.565H22.261C9.966,133.565,0,143.531,0,155.826V267.13
	c0,12.295,9.966,22.261,22.261,22.261h467.478c12.295,0,22.261-9.966,22.261-22.261V155.826
	C512,143.531,502.034,133.565,489.739,133.565z M495.304,267.13c0,3.069-2.497,5.565-5.565,5.565H22.261
	c-3.069,0-5.565-2.497-5.565-5.565V155.826c0-3.069,2.497-5.565,5.565-5.565h467.478c3.069,0,5.565,2.497,5.565,5.565V267.13z"/>
<path style="fill:#84A7B7;" d="M96.278,229.195c0,14.372-13.731,26.064-30.609,26.064H43.409c-4.61,0-8.348-3.738-8.348-8.348
	c0-4.61,3.738-8.348,8.348-8.348H65.67c7.412,0,13.913-4.378,13.913-9.368c0-4.99-6.501-9.368-13.913-9.368h-11.13
	c-16.878,0-30.609-11.691-30.609-26.064s13.731-26.064,30.609-26.064H76.8c4.61,0,8.348,3.738,8.348,8.348
	c0,4.61-3.738,8.348-8.348,8.348H54.539c-7.412,0-13.913,4.378-13.913,9.368c0,4.99,6.501,9.368,13.913,9.368h11.13
	C82.548,203.13,96.278,214.822,96.278,229.195z M384,184.395h22.261c4.61,0,8.348-3.738,8.348-8.348c0-4.61-3.738-8.348-8.348-8.348
	H384c-16.878,0-30.609,11.693-30.609,26.064v35.432c0,14.372,13.73,26.064,30.609,26.064h22.261c4.61,0,8.348-3.738,8.348-8.348
	c0-4.61-3.738-8.348-8.348-8.348H384c-7.412,0-13.913-4.378-13.913-9.368v-35.432C370.087,188.772,376.588,184.395,384,184.395z
	 M136.904,184.395h22.261c4.61,0,8.348-3.738,8.348-8.348c0-4.61-3.738-8.348-8.348-8.348h-22.261
	c-16.878,0-30.609,11.693-30.609,26.064v35.432c0,14.372,13.73,26.064,30.609,26.064h22.261c4.61,0,8.348-3.738,8.348-8.348
	c0-4.61-3.738-8.348-8.348-8.348h-22.261c-7.412,0-13.913-4.378-13.913-9.368v-9.369h36.174c4.61,0,8.348-3.738,8.348-8.348
	c0-4.61-3.738-8.348-8.348-8.348h-36.174v-9.368C122.991,188.772,129.493,184.395,136.904,184.395z M252.003,245.615
	c0.716,4.555-2.396,8.826-6.952,9.542c-0.439,0.069-0.875,0.102-1.306,0.102c-4.039,0-7.59-2.937-8.237-7.053l-3.066-19.522h-33.026
	l-3.066,19.522c-0.717,4.555-4.992,7.669-9.542,6.952c-4.555-0.716-7.667-4.988-6.952-9.542l9.06-57.679
	c1.842-11.727,13.203-20.237,27.014-20.237c13.812,0,25.171,8.511,27.014,20.238L252.003,245.615z M229.821,211.989l-3.371-21.463
	c-0.463-2.95-4.617-6.132-10.519-6.132s-10.056,3.183-10.519,6.133l-3.371,21.462L229.821,211.989L229.821,211.989z
	 M479.722,167.699c-4.61,0-8.348,3.738-8.348,8.348v27.084h-27.826v-27.084c0-4.61-3.738-8.348-8.348-8.348
	s-8.348,3.738-8.348,8.348v70.864c0,4.61,3.738,8.348,8.348,8.348s8.348-3.738,8.348-8.348v-27.085h27.826v27.084
	c0,4.61,3.738,8.348,8.348,8.348s8.348-3.738,8.348-8.348v-70.864C488.07,171.435,484.332,167.699,479.722,167.699z
	 M340.035,193.763c0-14.372-13.73-26.064-30.609-26.064h-33.391c-4.61,0-8.348,3.738-8.348,8.348v70.864
	c0,4.61,3.738,8.348,8.348,8.348c4.61,0,8.348-3.738,8.348-8.348v-62.516h25.043c7.412,0,13.913,4.378,13.913,9.368
	c0,4.99-6.501,9.368-13.913,9.368h-11.13c-4.61,0-8.348,3.738-8.348,8.348s3.738,8.348,8.348,8.348h6.517l19.807,31.525
	c1.586,2.524,4.3,3.908,7.077,3.908c1.517,0,3.053-0.414,4.432-1.28c3.903-2.453,5.08-7.605,2.628-11.509l-15.892-25.296
	C333.023,212.929,340.035,204.032,340.035,193.763z"/>
<path style="fill:#FC8059;" d="M362.376,206.76l139.011,54.396c12.911,5.052,14.395,22.731,2.505,29.864l-49.567,29.741
	l-29.741,49.567c-7.133,11.89-24.812,10.406-29.864-2.505l-54.396-139.011c-2.464-6.296-0.966-13.454,3.814-18.235l0,0
	C348.921,205.794,356.079,204.296,362.376,206.76z"/>
<path style="fill:#AD3C1E;" d="M503.893,291.02l-49.567,29.741L344.14,210.574c4.782-4.782,11.939-6.279,18.235-3.814
	l139.011,54.396C514.298,266.208,515.782,283.886,503.893,291.02z"/>
<g>
</g>
<g>
</g>
<g>
</g>
<g>
</g>
<g>
</g>
<g>
</g>
<g>
</g>
<g>
</g>
<g>
</g>
<g>
</g>
<g>
</g>
<g>
</g>
<g>
</g>
<g>
</g>
<g>
</g>
</svg>
