<svg xmlns="http://www.w3.org/2000/svg" xmlns:xlink="http://www.w3.org/1999/xlink" version="1.1" width="256" height="256" viewBox="0 0 256 256" xml:space="preserve">
<desc>Created with Fabric.js 1.7.22</desc>
<defs>
</defs>
<g transform="translate(128 128) scale(0.72 0.72)" style="">
	<g style="stroke: none; stroke-width: 0; stroke-dasharray: none; stroke-linecap: butt; stroke-linejoin: miter; stroke-miterlimit: 10; fill: none; fill-rule: nonzero; opacity: 1;" transform="translate(-175.05 -175.05000000000004) scale(3.89 3.89)" >
	<path d="M 0 68.798 v 11.914 c 0 1.713 1.401 3.114 3.114 3.114 h 0 c 3.344 0 4.805 -2.642 4.805 -2.642 L 8.14 29.281 l 2.739 -2.827 l 72.894 -2.977 v -1.482 c 0 -2.396 -1.942 -4.338 -4.338 -4.338 H 50.236 c -1.15 0 -2.254 -0.457 -3.067 -1.27 l -8.943 -8.943 c -0.813 -0.813 -1.917 -1.27 -3.067 -1.27 H 4.338 C 1.942 6.174 0 8.116 0 10.512 v 7.146 v 2.332 V 68.798" style="stroke: none; stroke-width: 1; stroke-dasharray: none; stroke-linecap: butt; stroke-linejoin: miter; stroke-miterlimit: 10; fill: rgb(224,173,49); fill-rule: nonzero; opacity: 1;" transform=" matrix(1 0 0 1 0 0) " stroke-linecap="round" />
	<path d="M 3.114 83.826 L 3.114 83.826 c 1.713 0 3.114 -1.401 3.114 -3.114 V 27.81 c 0 -2.393 1.94 -4.333 4.333 -4.333 h 75.107 c 2.393 0 4.333 1.94 4.333 4.333 v 51.684 c 0 2.393 -1.94 4.333 -4.333 4.333 C 85.667 83.826 3.114 83.826 3.114 83.826 z" style="stroke: none; stroke-width: 1; stroke-dasharray: none; stroke-linecap: butt; stroke-linejoin: miter; stroke-miterlimit: 10; fill: rgb(255,200,67); fill-rule: nonzero; opacity: 1;" transform=" matrix(1 0 0 1 0 0) " stroke-linecap="round" />
	<path d="M 66.116 67.35 l -9.563 -9.563 c -0.989 -0.989 -2.422 -1.252 -3.658 -0.813 L 51.622 55.7 c 3.882 -4.936 3.557 -12.123 -0.991 -16.671 c -4.908 -4.909 -12.895 -4.908 -17.802 0 c -4.908 4.908 -4.908 12.893 0 17.801 c 2.454 2.454 5.677 3.681 8.9 3.681 c 2.751 0 5.499 -0.902 7.772 -2.689 l 1.273 1.273 c -0.133 0.374 -0.214 0.767 -0.214 1.176 c 0 0.94 0.365 1.822 1.027 2.483 l 9.561 9.561 c 0.662 0.663 1.544 1.028 2.484 1.028 c 0.939 0 1.821 -0.365 2.483 -1.027 C 67.485 70.946 67.485 68.719 66.116 67.35 z M 34.95 54.709 c -3.738 -3.738 -3.738 -9.821 0 -13.559 c 1.869 -1.869 4.324 -2.803 6.78 -2.803 c 2.455 0 4.911 0.934 6.78 2.803 c 3.737 3.738 3.737 9.821 0 13.559 C 44.771 58.447 38.689 58.447 34.95 54.709 z M 63.995 70.194 c -0.129 0.129 -0.282 0.148 -0.362 0.148 s -0.233 -0.02 -0.362 -0.148 l -9.563 -9.563 c -0.128 -0.128 -0.147 -0.281 -0.147 -0.361 s 0.02 -0.233 0.148 -0.362 c 0.099 -0.098 0.23 -0.146 0.362 -0.146 s 0.263 0.049 0.361 0.146 l 9.563 9.563 C 64.191 69.667 64.191 69.998 63.995 70.194 z" style="stroke: none; stroke-width: 1; stroke-dasharray: none; stroke-linecap: butt; stroke-linejoin: miter; stroke-miterlimit: 10; fill: rgb(184,53,53); fill-rule: nonzero; opacity: 1;" transform=" matrix(1 0 0 1 0 0) " stroke-linecap="round" />
</g>
</g>
</svg>